<svg width="8" height="14" viewBox="0 0 8 14" fill="none" xmlns="http://www.w3.org/2000/svg">
<path d="M7.6625 6.17135L1.95767 0.342824C1.85129 0.234136 1.72499 0.147919 1.586 0.0890975C1.447 0.0302756 1.29803 0 1.14758 0C0.843741 0 0.552344 0.123318 0.337496 0.342824C0.231114 0.451513 0.146727 0.580545 0.0891533 0.722554C0.0315797 0.864563 0.00194772 1.01677 0.00194772 1.17048C0.00194772 1.48091 0.122648 1.77862 0.337496 1.99813L5.24365 6.99901L0.337496 11.9999C0.230555 12.1083 0.145674 12.2372 0.0877485 12.3792C0.0298231 12.5213 0 12.6736 0 12.8275C0 12.9814 0.0298231 13.1338 0.0877485 13.2758C0.145674 13.4179 0.230555 13.5468 0.337496 13.6552C0.443564 13.7644 0.569756 13.8512 0.708793 13.9103C0.847831 13.9695 0.996961 14 1.14758 14C1.2982 14 1.44733 13.9695 1.58637 13.9103C1.72541 13.8512 1.8516 13.7644 1.95767 13.6552L7.6625 7.82666C7.76944 7.71829 7.85433 7.58936 7.91225 7.44731C7.97018 7.30526 8 7.15289 8 6.99901C8 6.84512 7.97018 6.69275 7.91225 6.5507C7.85433 6.40865 7.76944 6.27972 7.6625 6.17135Z" fill="white"/>
</svg>
