<svg width="42" height="30" viewBox="0 0 42 30" fill="none" xmlns="http://www.w3.org/2000/svg">
<path id="icon-questions" fill-rule="evenodd" clip-rule="evenodd" d="M40.3251 29.4801L42 28.8167C41.8387 28.7826 41.669 28.75 41.4934 28.7163C39.9357 28.4172 37.9067 28.0277 37.0859 25.6569C42.279 21.2713 42.6073 13.3915 37.8007 8.58695C33.2628 4.05179 25.9171 4.05118 21.3791 8.58695C12.9966 16.9654 21.1646 31.0001 32.5399 28.0208C34.7158 30.0394 37.7681 30.4912 40.3251 29.4801ZM19.0644 16.7939C19.0644 10.9929 23.7861 6.27407 29.5896 6.27407C39.5328 6.27407 43.9165 18.8642 36.124 25.041C35.9501 25.1789 35.8754 25.2115 35.858 25.2633C35.8406 25.3151 35.8805 25.3862 35.9359 25.6015C36.2899 26.9799 37.191 28.1491 38.384 28.8641C36.1424 29.1432 34.3611 28.3248 32.8528 26.8036C25.3559 28.9882 19.0644 23.4449 19.0644 16.7939ZM28.6265 19.0496H30.7808C31.1398 19.0496 31.3918 18.8009 31.4096 18.4702L31.7685 11.7638C31.7864 11.4324 31.4993 11.1838 31.1398 11.1838H28.2675C27.9086 11.1838 27.6209 11.4324 27.6387 11.7638L27.9977 18.4702C28.0161 18.8009 28.2675 19.0496 28.6265 19.0496ZM30.6013 19.9598H28.8059C28.3572 19.9598 27.9086 20.3745 27.9086 20.7885V21.9474C27.9086 22.3608 28.3572 22.7749 28.8059 22.7749H30.6013C31.0506 22.7749 31.4993 22.3608 31.4993 21.9474V20.7885C31.4993 20.3745 31.0506 19.9598 30.6013 19.9598ZM19.7872 8.74625C19.9433 8.57479 20.116 8.39299 20.306 8.20329C21.271 7.2396 22.3693 6.4583 23.5587 5.87522C21.2826 2.34085 17.312 0 12.7943 0C0.735533 0 -4.63466 15.2921 4.85122 22.8108C4.32816 24.8446 2.68458 26.4284 0.616905 26.8662C3.48916 28.0032 6.89247 27.3976 9.2054 25.0635C12.3973 25.9937 15.9739 25.6745 19.0644 23.9344C16.4951 20.414 16.1233 15.9299 17.6384 12.2101C17.8597 11.6817 18.1 11.2038 18.3452 10.78C18.3471 10.788 18.3594 10.7648 18.3938 10.6913C18.8111 9.98173 19.2033 9.4479 19.4688 9.12139C19.4999 9.08445 19.5297 9.04838 19.5595 9.01231C19.6298 8.92728 19.7 8.84231 19.7872 8.74625ZM10.6042 14.5498H12.7471C12.7527 14.1231 12.8115 13.7546 12.9235 13.4443C13.0412 13.1339 13.2597 12.8374 13.579 12.5548C13.9487 12.2112 14.2877 11.8787 14.5958 11.5573C14.9039 11.2359 15.1532 10.8895 15.3437 10.5182C15.5342 10.1414 15.6294 9.71188 15.6294 9.22974C15.6294 8.53702 15.481 7.94959 15.184 7.46746C14.8871 6.97978 14.4585 6.61125 13.8983 6.36187C13.3381 6.10695 12.6658 5.97949 11.8815 5.97949C11.17 5.97949 10.5286 6.10141 9.95712 6.34525C9.38569 6.58355 8.92911 6.95207 8.58737 7.45083C8.25123 7.94405 8.07476 8.57027 8.05795 9.3295H10.4949C10.5005 8.98591 10.5678 8.70882 10.6966 8.49823C10.8311 8.28764 11.0019 8.13247 11.2092 8.03272C11.4165 7.92743 11.6406 7.87478 11.8815 7.87478C12.1728 7.87478 12.4137 7.9302 12.6042 8.04103C12.8003 8.15187 12.9459 8.31535 13.0412 8.53148C13.142 8.74207 13.1924 9.00807 13.1924 9.3295C13.1924 9.60659 13.1364 9.85874 13.0244 10.0859C12.9123 10.3076 12.7583 10.5237 12.5622 10.7343C12.3661 10.9449 12.1364 11.1666 11.8731 11.3994C11.5594 11.6875 11.3073 11.9785 11.1168 12.2722C10.9319 12.5659 10.8003 12.8956 10.7218 13.2614C10.649 13.6216 10.6098 14.0511 10.6042 14.5498ZM10.7218 16.2373C10.4753 16.4701 10.3521 16.7638 10.3521 17.1185C10.3521 17.4621 10.4753 17.753 10.7218 17.9913C10.9683 18.2296 11.2989 18.3487 11.7134 18.3487C12.1224 18.3487 12.4501 18.2296 12.6966 17.9913C12.9487 17.753 13.0748 17.4621 13.0748 17.1185C13.0748 16.7638 12.9487 16.4701 12.6966 16.2373C12.4501 15.999 12.1224 15.8799 11.7134 15.8799C11.2989 15.8799 10.9683 15.999 10.7218 16.2373Z" fill="white"/>
</svg>
