<svg width="256" height="162" viewBox="0 0 256 162" fill="none" xmlns="http://www.w3.org/2000/svg">
<path d="M39.915 161C40.5698 159.33 41.6083 157.817 43.0532 156.711C41.5857 154.882 40.5698 152.331 40.6826 150.073C40.7955 147.341 41.6986 144.519 43.7756 142.6C45.8301 140.704 48.3812 139.507 51.2485 139.507H51.6323C52.8514 139.507 54.0931 139.778 55.2671 140.207C55.1994 139.711 55.1316 139.214 55.1542 138.717C55.2671 135.985 56.1701 133.163 58.2472 131.244C60.3016 129.348 62.8528 128.151 65.72 128.151H66.1038C67.3681 128.151 68.6324 128.422 69.8515 128.896C70.2353 128.309 70.6643 127.79 71.161 127.339C73.1703 125.487 75.8117 124.133 78.6338 124.246C79.7401 124.291 80.8012 124.539 81.8171 124.878C82.0203 122.327 82.9008 119.73 84.8424 117.969C86.8968 116.073 89.448 114.876 92.3152 114.876H92.699C95.4082 114.876 98.2528 116.05 100.172 117.969C101.933 119.73 103.242 122.53 103.265 125.081C104.665 125.126 106.064 125.51 107.351 126.097C108.457 125.691 109.677 125.42 111.076 125.42C120.716 125.42 123.493 136.008 119.452 142.194C119.588 143.029 119.655 143.887 119.633 144.745C120.807 145.242 121.89 145.942 122.839 146.89L123.222 147.274C124.622 148.673 125.593 150.547 126.045 152.511C130.944 153.189 133.698 156.891 134.353 161H39.915Z" fill="#5CE0FF" stroke="black" stroke-miterlimit="10"/>
<path d="M220.596 1H136.385V161H220.596V1Z" fill="white" stroke="black" stroke-miterlimit="10"/>
<path d="M211.768 9.42114H201.247V161H211.768V9.42114Z" fill="#5CE0FF" stroke="black" stroke-miterlimit="10"/>
<path d="M155.733 9.42114H145.212V161H155.733V9.42114Z" fill="#5CE0FF" stroke="black" stroke-miterlimit="10"/>
<path d="M174.404 9.42114H163.883V129.461H174.404V9.42114Z" fill="#5CE0FF" stroke="black" stroke-miterlimit="10"/>
<path d="M193.075 9.42114H182.554V129.461H193.075V9.42114Z" fill="#5CE0FF" stroke="black" stroke-miterlimit="10"/>
<path d="M178.49 136.752C169.956 136.752 163.048 143.661 163.048 152.195V161H193.91V152.195C193.91 143.661 187.002 136.752 178.468 136.752H178.49Z" fill="black" stroke="black" stroke-miterlimit="10"/>
<path d="M159.526 68.3687H90.0581V160.978H159.526V68.3687Z" fill="white" stroke="black" stroke-miterlimit="10"/>
<path d="M154.311 144.474H142.91V155.492H154.311V144.474Z" fill="#5CE0FF" stroke="black" stroke-miterlimit="10"/>
<path d="M106.675 144.474H95.2734V155.492H106.675V144.474Z" fill="#5CE0FF" stroke="black" stroke-miterlimit="10"/>
<path d="M154.311 127.519H142.91V138.537H154.311V127.519Z" fill="#5CE0FF" stroke="black" stroke-miterlimit="10"/>
<path d="M106.675 127.519H95.2734V138.537H106.675V127.519Z" fill="#5CE0FF" stroke="black" stroke-miterlimit="10"/>
<path d="M122.546 127.519H111.145V138.537H122.546V127.519Z" fill="#5CE0FF" stroke="black" stroke-miterlimit="10"/>
<path d="M138.417 127.519H127.016V138.537H138.417V127.519Z" fill="#5CE0FF" stroke="black" stroke-miterlimit="10"/>
<path d="M154.311 110.541H142.91V121.559H154.311V110.541Z" fill="#5CE0FF" stroke="black" stroke-miterlimit="10"/>
<path d="M106.675 110.541H95.2734V121.559H106.675V110.541Z" fill="#5CE0FF" stroke="black" stroke-miterlimit="10"/>
<path d="M122.546 110.541H111.145V121.559H122.546V110.541Z" fill="#5CE0FF" stroke="black" stroke-miterlimit="10"/>
<path d="M138.417 110.541H127.016V121.559H138.417V110.541Z" fill="#5CE0FF" stroke="black" stroke-miterlimit="10"/>
<path d="M154.311 93.564H142.91V104.581H154.311V93.564Z" fill="#5CE0FF" stroke="black" stroke-miterlimit="10"/>
<path d="M106.675 93.564H95.2734V104.581H106.675V93.564Z" fill="#5CE0FF" stroke="black" stroke-miterlimit="10"/>
<path d="M122.546 93.564H111.145V104.581H122.546V93.564Z" fill="#5CE0FF" stroke="black" stroke-miterlimit="10"/>
<path d="M138.417 93.564H127.016V104.581H138.417V93.564Z" fill="#5CE0FF" stroke="black" stroke-miterlimit="10"/>
<path d="M154.311 76.5862H142.91V87.6035H154.311V76.5862Z" fill="#5CE0FF" stroke="black" stroke-miterlimit="10"/>
<path d="M106.675 76.5862H95.2734V87.6035H106.675V76.5862Z" fill="#5CE0FF" stroke="black" stroke-miterlimit="10"/>
<path d="M122.546 76.5862H111.145V87.6035H122.546V76.5862Z" fill="#5CE0FF" stroke="black" stroke-miterlimit="10"/>
<path d="M138.417 76.5862H127.016V87.6035H138.417V76.5862Z" fill="#5CE0FF" stroke="black" stroke-miterlimit="10"/>
<path d="M139.524 142.555H110.061V146.754H139.524V142.555Z" fill="white" stroke="black" stroke-miterlimit="10"/>
<path d="M124.781 146.822H114.26V161H124.781H135.324V146.822H124.781Z" fill="black" stroke="black" stroke-miterlimit="10"/>
<path d="M0 161H255.995" stroke="black" stroke-miterlimit="10"/>
</svg>
