<svg width="124" height="220" viewBox="0 0 124 220" fill="none" xmlns="http://www.w3.org/2000/svg">
<path d="M79.951 16.8666C77.5741 14.4726 73.337 14.4516 71.0015 16.8036L64.3462 23.5446H60.7293L52.0072 14.7456H46.1373L15.858 45.4896C14.6592 46.7076 13.9978 48.3246 13.9978 50.0466C13.9978 51.7686 14.6592 53.3856 15.858 54.6036L57.5463 96.9186C58.7451 98.0946 60.3366 98.7456 62.0107 98.7456C63.6849 98.7456 65.3177 98.0736 66.4958 96.8766L106.944 55.8636L108.163 54.6246C110.623 52.1046 110.602 47.9886 108.143 45.4896L79.951 16.8666ZM86.3168 65.2506L63.8295 88.0776V88.0146H60.1919L24.5801 51.8946V48.2196L47.2741 25.2036H50.8911L54.9834 29.3616V33.0366L50.1883 37.9086C48.2042 39.9246 48.2042 43.2006 50.1883 45.2586L62.7754 58.0266C64.7596 59.9796 68.1079 59.9376 70.0301 58.0266L74.6185 53.3856H78.2561L86.3168 61.5756V65.2506Z" fill="white"/>
<path fill-rule="evenodd" clip-rule="evenodd" d="M14.0581 125.307H10.5025C6.0581 125.619 2.57238 129.311 2.57238 133.822C2.57238 138.333 6.11524 141.999 10.4708 141.999H14.0581C14.7438 141.999 15.2962 142.571 15.2962 143.279C15.2962 143.988 14.7375 144.56 14.0581 144.56H10.4708C4.75016 144.56 0.0898438 139.646 0.0898438 133.822C0.0898438 127.998 4.61683 123.129 10.3946 122.746H14.0581C14.7438 122.746 15.3025 123.318 15.3025 124.026C15.3025 124.735 14.7438 125.307 14.0581 125.307ZM27.0503 125.688L27.0376 125.675L32.809 143.511C33.0312 144.2 32.6757 144.948 32.009 145.175C31.8757 145.221 31.736 145.247 31.6026 145.247C31.0566 145.247 30.5677 144.889 30.3963 144.35L24.6249 126.52C24.4852 126.098 24.2566 126.065 24.1931 126.065C24.0598 126.072 23.9137 126.247 23.8376 126.501L18.3899 144.337C18.2883 144.668 18.0598 144.941 17.755 145.104C17.4502 145.266 17.1137 145.299 16.7899 145.195C16.4725 145.091 16.2058 144.863 16.0471 144.551C15.8947 144.233 15.8629 143.882 15.9645 143.55L21.4122 125.714C21.8312 124.323 22.8979 123.452 24.1868 123.439C25.482 123.439 26.6058 124.323 27.0503 125.688ZM42.0835 132.359L39.0676 132.353C38.5025 132.353 35.6835 132.151 35.6835 128.862C35.6835 125.573 38.8136 125.372 38.947 125.372H44.947C45.6517 125.372 46.2232 124.78 46.2232 124.059C46.2232 123.337 45.6517 122.746 44.947 122.746H38.9406C38.8835 122.746 33.1375 122.915 33.1375 128.862C33.1375 131.995 34.7819 133.51 36.1597 134.225C37.5502 134.946 38.9025 134.979 39.0549 134.979H42.0708C42.2295 134.979 43.6708 135.031 44.5978 135.986C45.1565 136.558 45.4422 137.397 45.4422 138.476C45.4422 139.555 45.1628 140.387 44.6041 140.959C43.6835 141.901 42.2549 141.96 42.0771 141.966H35.493C34.7882 141.966 34.2168 142.558 34.2168 143.279C34.2168 144.001 34.7882 144.592 35.493 144.592H42.0898C42.5279 144.586 44.7882 144.475 46.4009 142.824C47.4613 141.739 47.9946 140.276 47.9946 138.476C47.9946 136.675 47.4549 135.206 46.4009 134.127C44.7946 132.483 42.5216 132.366 42.0835 132.359ZM98.655 132.418H105.747C106.553 132.418 107.182 133.061 107.182 133.887C107.182 141.596 101.696 145.106 96.5915 145.106C91.4867 145.106 85.9946 141.583 85.9946 133.913C85.9946 126.243 91.4867 122.746 96.5915 122.746C97.3978 122.746 98.0264 123.389 98.0264 124.215C98.0264 125.04 97.3978 125.684 96.5915 125.684C92.7438 125.684 88.8645 128.212 88.8645 133.919C88.8645 139.626 92.7438 142.181 96.5915 142.181C99.5629 142.181 103.328 140.497 104.166 135.752C104.217 135.466 104.166 135.388 104.166 135.388C104.16 135.382 104.134 135.356 103.963 135.356H98.655C97.8486 135.356 97.22 134.712 97.22 133.887C97.22 133.061 97.8486 132.418 98.655 132.418ZM116.426 122.746C112.82 122.746 108.947 125.222 108.947 130.65V143.136C108.947 143.962 109.576 144.605 110.382 144.605C111.188 144.605 111.817 143.962 111.817 143.136V130.624C111.817 126.971 114.299 125.677 116.426 125.677C118.553 125.677 121.036 126.984 121.036 130.676V143.136C121.036 143.962 121.664 144.605 122.471 144.605C123.277 144.605 123.906 143.962 123.906 143.136V130.624C123.906 125.209 120.026 122.746 116.426 122.746ZM48.8074 122.746H61.2265C61.9312 122.746 62.5027 123.337 62.5027 124.059C62.5027 124.78 61.9312 125.372 61.2265 125.372H56.9725C56.6106 125.372 56.2931 125.872 56.2931 126.438V143.279C56.2931 144.001 55.7217 144.592 55.017 144.592C54.3122 144.592 53.7408 144.001 53.7408 143.279V126.438C53.7408 126.074 53.7916 125.716 53.8805 125.372H48.8074C48.1027 125.372 47.5312 124.78 47.5312 124.059C47.5312 123.337 48.1027 122.746 48.8074 122.746ZM76.7438 122.746C73.1374 122.746 69.2644 125.222 69.2644 130.65V143.136C69.2644 143.962 69.893 144.605 70.6993 144.605C71.5057 144.605 72.1342 143.962 72.1342 143.136V130.624C72.1342 126.971 74.6168 125.677 76.7438 125.677C78.8708 125.677 81.3533 126.984 81.3533 130.676V143.136C81.3533 143.962 81.9819 144.605 82.7882 144.605C83.5946 144.605 84.2231 143.962 84.2231 143.136V130.624C84.2231 125.209 80.3438 122.746 76.7438 122.746ZM64.3948 124.059C64.3948 123.337 64.9662 122.746 65.671 122.746C66.3757 122.746 66.9472 123.337 66.9472 124.059V143.273C66.9472 143.994 66.3757 144.586 65.671 144.586C64.9662 144.586 64.3948 143.994 64.3948 143.273V124.059Z" fill="white"/>
</svg>
