<svg width="173" height="161" viewBox="0 0 173 161" fill="none" xmlns="http://www.w3.org/2000/svg">
<path d="M72.3098 125.322C76.3172 125.187 79.9419 127.738 81.1576 131.576L83.7467 139.659C83.8818 140.11 84.287 140.449 84.7598 140.539L92.3469 141.803C93.5401 142.006 93.8103 143.587 92.7747 144.174L87.619 147.154C87.4164 147.267 87.1913 147.335 86.9436 147.335L79.8969 147.154C78.2309 147.109 76.79 146.003 76.3172 144.422L71.1391 126.993C70.8914 126.18 71.4768 125.368 72.3098 125.345V125.322Z" fill="white" stroke="#3E3A39" stroke-linecap="round" stroke-linejoin="round"/>
<path d="M62.2244 120.017C66.9522 119.859 71.2298 122.884 72.6707 127.399L75.7325 136.949C75.9126 137.491 76.3629 137.875 76.9257 137.988L85.8862 139.478C87.282 139.704 87.6197 141.578 86.3815 142.277L80.2803 145.799C80.0326 145.935 79.7625 146.003 79.4923 146.003L71.1623 145.799C69.2036 145.754 67.4926 144.445 66.9522 142.571L60.8285 121.981C60.5359 121.033 61.2338 120.062 62.2244 120.039V120.017Z" fill="white" stroke="#3E3A39" stroke-linecap="round" stroke-linejoin="round"/>
<path d="M51.9126 115.411C56.618 114.937 61.1207 117.917 62.8993 122.726L66.659 132.863C66.8617 133.428 67.357 133.834 67.9198 133.902L76.9703 134.94C78.3886 135.098 78.8614 137.085 77.6907 137.943L71.8597 142.142C71.6346 142.3 71.3644 142.39 71.0942 142.413L63.8674 142.684C61.2558 142.774 58.8693 141.036 57.9238 138.372L50.6519 117.601C50.2917 116.585 50.922 115.502 51.8901 115.411H51.9126Z" fill="white" stroke="#3E3A39" stroke-linecap="round" stroke-linejoin="round"/>
<path d="M33.114 122.455C35.1177 118.798 39.6204 117.308 43.4027 119.091L82.7114 137.491C83.6795 137.943 84.0847 139.094 83.612 140.065L80.3925 146.59C79.9197 147.538 78.7715 147.922 77.826 147.448L33.9019 125.074C32.9339 124.577 32.5736 123.403 33.0915 122.455H33.114Z" fill="white" stroke="#3E3A39" stroke-linecap="round" stroke-linejoin="round"/>
<path d="M143.498 130.628L143.453 153.543L110.156 153.475C110.156 153.475 109.975 153.475 109.885 153.453L78.1637 147.605C77.9836 147.56 77.781 147.493 77.6234 147.402L43.6054 125.661C42.8849 125.209 42.6823 124.261 43.1551 123.539C45.6766 119.746 50.6971 118.527 54.682 120.717L77.3757 133.947C77.7134 134.127 78.0962 134.172 78.4564 134.082L91.5593 128.935C93.3379 128.506 94.3285 126.609 93.6531 124.893L89.7582 114.847C89.6682 114.621 89.5331 114.44 89.353 114.282L84.3549 109.767C81.5858 107.261 81.4732 102.949 84.1298 100.33C84.6926 99.7657 85.5932 99.7431 86.2011 100.262L94.6437 107.826C94.6437 107.826 94.6887 107.871 94.7112 107.893L108.264 121.778C108.58 122.094 108.85 122.478 109.052 122.884L111.709 128.099C112.474 129.612 114.028 130.56 115.716 130.56L143.476 130.628H143.498Z" fill="white" stroke="#3E3A39" stroke-linecap="round" stroke-linejoin="round"/>
<path d="M151.265 123.922H119.093V156.975H151.265V123.922Z" fill="white" stroke="#3E3A39" stroke-linecap="round" stroke-linejoin="round"/>
<path d="M172 120.92H129.854V160H172V120.92Z" fill="#5AC8FF" stroke="#3E3A39" stroke-linecap="round" stroke-linejoin="round"/>
<path d="M145.637 133.495C145.637 130.334 143.093 127.761 139.941 127.738C136.789 127.738 134.222 130.289 134.2 133.45C134.2 136.611 136.744 139.184 139.896 139.207C143.048 139.23 145.614 136.656 145.637 133.495Z" fill="white"/>
<path d="M144.353 133.495C144.353 131.034 142.372 129.025 139.918 129.025C137.464 129.025 135.46 131.012 135.46 133.472C135.46 135.933 137.442 137.943 139.873 137.943C142.327 137.943 144.331 135.956 144.331 133.495H144.353Z" fill="#DCDDDD"/>
<path d="M141.809 135.437H138.004C137.059 135.437 137.081 133.969 138.004 133.969H141.809C142.755 133.969 142.732 135.437 141.809 135.437Z" fill="#3E3A39"/>
<path d="M141.832 132.999H138.027C137.081 132.999 137.104 131.531 138.027 131.531H141.832C142.777 131.531 142.755 132.999 141.832 132.999Z" fill="#3E3A39"/>
<path d="M81.1354 92.8348H34.217V93.4218C34.217 98.9982 38.7198 103.514 44.2806 103.514H71.0943C76.6552 103.514 81.1579 98.9982 81.1579 93.4218V92.8348H81.1354Z" fill="#5AC8FF" stroke="#3E3A39" stroke-linecap="round" stroke-linejoin="round"/>
<path d="M67.7394 112.341H47.6348C45.7887 112.341 44.2803 110.828 44.2803 108.977V103.514H71.094V108.977C71.094 110.828 69.5855 112.341 67.7394 112.341Z" fill="#5AC8FF" stroke="#3E3A39" stroke-linecap="round" stroke-linejoin="round"/>
<path d="M81.1354 92.8348H34.217V93.4218C34.217 98.9982 38.7198 103.514 44.2806 103.514H71.0943C76.6552 103.514 81.1579 98.9982 81.1579 93.4218V92.8348H81.1354Z" fill="#5AC8FF" stroke="#3E3A39" stroke-linecap="round" stroke-linejoin="round"/>
<path d="M81.1354 92.8348H34.217V93.4218C34.217 98.9982 38.7198 103.514 44.2806 103.514H71.0943C76.6552 103.514 81.1579 98.9982 81.1579 93.4218V92.8348H81.1354Z" fill="#5AC8FF" stroke="#3E3A39" stroke-linecap="round" stroke-linejoin="round"/>
<path d="M57.6758 92.8349C37.256 92.8349 20.7085 76.2411 20.7085 55.7642C20.7085 35.2873 37.256 18.6935 57.6758 18.6935C78.0956 18.6935 94.6431 35.2873 94.6431 55.7642C94.6431 76.2411 78.0956 92.8349 57.6758 92.8349Z" fill="white" stroke="#3E3A39" stroke-linecap="round" stroke-linejoin="round"/>
<path d="M64.7008 78.8147C63.9128 78.6115 63.0798 78.9502 62.6746 79.6726L61.9992 80.8692C61.8641 81.1175 61.639 81.1401 61.5489 81.1401C61.4589 81.1401 61.2337 81.1175 61.0986 80.8692C60.4007 79.6275 59.1174 78.8824 57.6766 78.8824C56.2357 78.8824 54.9749 79.6275 54.2545 80.8692C54.1194 81.1175 53.8943 81.1401 53.8042 81.1401C53.7142 81.1401 53.489 81.1175 53.354 80.8692L52.6786 79.6726C52.2733 78.9502 51.4628 78.6115 50.6523 78.8147C49.8418 79.0179 49.3015 79.7178 49.3015 80.5531V92.8347H66.0741V80.5531C66.0741 79.7178 65.5338 79.0179 64.7233 78.8147H64.7008Z" fill="#FFD92D" stroke="#3E3A39" stroke-miterlimit="10"/>
<path d="M57.6758 92.8349C37.256 92.8349 20.7085 76.2412 20.7085 55.7642C20.7085 35.2873 37.256 18.6935 57.6758 18.6935C78.0956 18.6935 94.6431 35.2873 94.6431 55.7642C94.6431 76.2412 78.0956 92.8349 57.6758 92.8349Z" stroke="#3E3A39" stroke-linecap="round" stroke-linejoin="round"/>
<path d="M81.1354 92.8348H34.217V93.4218C34.217 98.9982 38.7198 103.514 44.2806 103.514H71.0943C76.6552 103.514 81.1579 98.9982 81.1579 93.4218V92.8348H81.1354Z" fill="#5AC8FF" stroke="#3E3A39" stroke-linecap="round" stroke-linejoin="round"/>
<path d="M67.7394 112.341H47.6348C45.7887 112.341 44.2803 110.828 44.2803 108.977V103.514H71.094V108.977C71.094 110.828 69.5855 112.341 67.7394 112.341Z" fill="#5AC8FF" stroke="#3E3A39" stroke-linecap="round" stroke-linejoin="round"/>
<path d="M81.1354 92.8348H34.217V93.4218C34.217 98.9982 38.7198 103.514 44.2806 103.514H71.0943C76.6552 103.514 81.1579 98.9982 81.1579 93.4218V92.8348H81.1354Z" fill="#5AC8FF" stroke="#3E3A39" stroke-linecap="round" stroke-linejoin="round"/>
<path d="M57.6765 11.7172C57.0461 11.7172 56.5508 11.198 56.5508 10.5884V1.12883C56.5508 0.496684 57.0686 0 57.6765 0C58.2843 0 58.8021 0.519261 58.8021 1.12883V10.5658C58.8021 11.198 58.2843 11.6947 57.6765 11.6947V11.7172Z" fill="#FFF5C6"/>
<path d="M41.2642 14.6295C40.7914 14.6295 40.3636 14.336 40.206 13.8845L36.9866 5.0119C36.7614 4.42491 37.0766 3.77019 37.662 3.54442C38.2473 3.34124 38.9002 3.63473 39.1254 4.22172L42.3448 13.0943C42.57 13.6813 42.2548 14.336 41.6694 14.5618C41.5343 14.6069 41.4218 14.6295 41.2867 14.6295H41.2642Z" fill="#FFF5C6"/>
<path d="M26.8328 22.983C26.5177 22.983 26.18 22.8475 25.9548 22.5766L19.8987 15.3521C19.4934 14.878 19.561 14.1555 20.0337 13.7491C20.5065 13.3428 21.227 13.4105 21.6322 13.8846L27.6884 21.1091C28.0936 21.5832 28.0261 22.3057 27.5533 22.712C27.3507 22.8926 27.0805 22.983 26.8328 22.983Z" fill="#FFF5C6"/>
<path d="M16.1164 35.7838C15.9137 35.7838 15.7336 35.7387 15.5535 35.6258L7.4036 30.9073C6.86327 30.5912 6.68317 29.8913 6.99836 29.3495C7.31355 28.8077 8.01147 28.6271 8.55179 28.9431L16.7017 33.6616C17.242 33.9777 17.4221 34.6776 17.107 35.2194C16.9043 35.5806 16.5216 35.7838 16.1164 35.7838Z" fill="#FFF5C6"/>
<path d="M107.386 88.6356C107.184 88.6356 107.003 88.5905 106.823 88.4776L98.6734 83.7591C98.133 83.443 97.9529 82.7431 98.2681 82.2013C98.5833 81.6595 99.2812 81.4789 99.8216 81.7949L107.971 86.5134C108.512 86.8295 108.692 87.5294 108.377 88.0712C108.174 88.4324 107.791 88.6356 107.386 88.6356Z" fill="#FFF5C6"/>
<path d="M10.4203 51.4972C10.4203 51.4972 10.2852 51.4972 10.2177 51.4972L0.942052 49.8491C0.334185 49.7362 -0.0935727 49.1492 0.0189953 48.5397C0.131563 47.9301 0.73943 47.5011 1.32478 47.614L10.6004 49.2621C11.2082 49.375 11.636 49.962 11.5234 50.5715C11.4334 51.1134 10.9381 51.5198 10.4203 51.5198V51.4972Z" fill="#FFF5C6"/>
<path d="M114.208 69.8519C114.208 69.8519 114.073 69.8519 114.005 69.8519L104.73 68.2038C104.122 68.0909 103.694 67.504 103.807 66.8944C103.919 66.2848 104.527 65.8559 105.112 65.9688L114.388 67.6168C114.996 67.7297 115.424 68.3167 115.311 68.9263C115.221 69.4681 114.726 69.8745 114.208 69.8745V69.8519Z" fill="#FFF5C6"/>
<path d="M1.12216 69.8519C0.581832 69.8519 0.109046 69.4681 0.0189919 68.9037C-0.093576 68.2941 0.311669 67.7071 0.942049 67.5943L10.2176 65.9462C10.8255 65.8333 11.4109 66.2397 11.5234 66.8718C11.636 67.4814 11.2308 68.0684 10.6004 68.1813L1.32478 69.8293C1.32478 69.8293 1.1897 69.8293 1.12216 69.8293V69.8519Z" fill="#FFF5C6"/>
<path d="M104.932 51.4971C104.392 51.4971 103.919 51.1133 103.829 50.5488C103.717 49.9393 104.122 49.3297 104.752 49.2394L114.028 47.5913C114.636 47.4784 115.221 47.8848 115.334 48.5169C115.446 49.1265 115.041 49.7361 114.411 49.8264L105.135 51.4745C105.135 51.4745 105 51.4745 104.932 51.4745V51.4971Z" fill="#FFF5C6"/>
<path d="M7.94403 88.6356C7.5613 88.6356 7.17857 88.4324 6.95343 88.0712C6.63824 87.5294 6.81835 86.8295 7.35868 86.5134L15.5086 81.7949C16.0489 81.4789 16.7468 81.6595 17.062 82.2013C17.3772 82.7431 17.1971 83.443 16.6568 83.7591L8.50687 88.4776C8.32676 88.5905 8.12414 88.6356 7.94403 88.6356Z" fill="#FFF5C6"/>
<path d="M99.236 35.7838C98.8533 35.7838 98.4706 35.5806 98.2454 35.2194C97.9302 34.6776 98.1103 33.9777 98.6507 33.6616L106.801 28.9431C107.341 28.6271 108.039 28.8077 108.354 29.3495C108.669 29.8913 108.489 30.5912 107.949 30.9073L99.7989 35.6258C99.6188 35.7387 99.4161 35.7838 99.236 35.7838Z" fill="#FFF5C6"/>
<path d="M88.5196 22.983C88.2719 22.983 88.0017 22.8926 87.7991 22.712C87.3263 22.3057 87.2588 21.5832 87.664 21.1091L93.7202 13.8846C94.1254 13.4105 94.8459 13.3428 95.3187 13.7491C95.7914 14.1555 95.859 14.878 95.4537 15.3521L89.3976 22.5766C89.1725 22.8475 88.8573 22.983 88.5196 22.983Z" fill="#FFF5C6"/>
<path d="M74.0889 14.6295C73.9538 14.6295 73.8188 14.6295 73.7062 14.5618C73.1208 14.3586 72.8056 13.7039 73.0308 13.0943L76.2502 4.22172C76.4754 3.63473 77.1057 3.34124 77.7136 3.54442C78.299 3.74761 78.6141 4.40233 78.389 5.0119L75.1696 13.8845C75.012 14.336 74.5617 14.6295 74.1114 14.6295H74.0889Z" fill="#FFF5C6"/>
<path d="M57.6759 73.9382C67.8593 73.9382 76.1146 65.6598 76.1146 55.448C76.1146 45.2361 67.8593 36.9578 57.6759 36.9578C47.4926 36.9578 39.2373 45.2361 39.2373 55.448C39.2373 65.6598 47.4926 73.9382 57.6759 73.9382Z" fill="#FFF5C6" stroke="#3E3A39" stroke-miterlimit="10"/>
<path d="M70.4415 55.448C70.4415 62.5145 64.7231 68.2489 57.6763 68.2489C50.6296 68.2489 44.9111 62.5145 44.9111 55.448C44.9111 48.3815 50.6296 42.6471 57.6763 42.6471C64.7231 42.6471 70.4415 48.3815 70.4415 55.448Z" fill="#FFD92D"/>
</svg>
